# xmcd
#
# Track frame offsets:
#	150
#	13319
#	29496
#	47176
#	63140
#	80129
#	92482
#	107049
#	125077
#	138925
#	152875
#	168685
#
# Disc length: 2435 seconds
#
# Revision: 0
# Processed by: cddbd v1.5.2PL0 Copyright (c) Steve Scherf et al.
# Submitted via: dBpowerAMP V4.0
#
DISCID=a609810c
DTITLE=Emmylou Harris - Duets
DYEAR=1900
DGENRE=
TTITLE0=Price I Pay
TTITLE1=Love Hurts
TTITLE2=That Lovin' You Feelin' Again
TTITLE3=We Believe In Happy Endings
TTITLE4=Thing About You
TTITLE5=Star Of Bethlehem
TTITLE6=All Fall Down
TTITLE7=Wild Montana Skies
TTITLE8=Green Pastures
TTITLE9=Gulf Coast Highway
TTITLE10=If I Needed you
TTITLE11=Evangeline
EXTD=
EXTT0=
EXTT1=
EXTT2=
EXTT3=
EXTT4=
EXTT5=
EXTT6=
EXTT7=
EXTT8=
EXTT9=
EXTT10=
EXTT11=
PLAYORDER=
